<svg width="1548" height="789" viewBox="0 0 1548 789" fill="none" xmlns="http://www.w3.org/2000/svg">
<g clip-path="url(#clip0_19_2)">
<g filter="url(#filter0_i_19_2)">
<path d="M672.693 491V200.091H859.057V244.267H725.392V323.244H846.273V367.42H725.392V491H672.693ZM965.626 495.403C951.801 495.403 939.348 492.941 928.268 488.017C917.284 482.998 908.571 475.612 902.132 465.858C895.787 456.104 892.615 444.078 892.615 429.778C892.615 417.468 894.888 407.288 899.433 399.239C903.979 391.189 910.181 384.75 918.041 379.92C925.901 375.091 934.755 371.445 944.604 368.983C954.547 366.426 964.821 364.58 975.428 363.443C988.212 362.117 998.581 360.934 1006.54 359.892C1014.49 358.756 1020.27 357.051 1023.87 354.778C1027.56 352.411 1029.4 348.765 1029.4 343.841V342.989C1029.4 332.288 1026.23 324.002 1019.89 318.131C1013.54 312.259 1004.4 309.324 992.473 309.324C979.878 309.324 969.888 312.07 962.501 317.562C955.21 323.055 950.286 329.542 947.729 337.023L899.717 330.205C903.505 316.947 909.755 305.867 918.467 296.966C927.179 287.97 937.833 281.246 950.428 276.795C963.022 272.25 976.943 269.977 992.189 269.977C1002.7 269.977 1013.16 271.208 1023.58 273.67C1034 276.133 1043.51 280.205 1052.13 285.886C1060.75 291.473 1067.66 299.097 1072.87 308.756C1078.17 318.415 1080.83 330.489 1080.83 344.977V491H1031.39V461.028H1029.69C1026.56 467.089 1022.16 472.771 1016.48 478.074C1010.89 483.282 1003.84 487.496 995.314 490.716C986.886 493.841 976.99 495.403 965.626 495.403ZM978.979 457.619C989.301 457.619 998.25 455.583 1005.83 451.511C1013.4 447.345 1019.22 441.852 1023.3 435.034C1027.46 428.216 1029.55 420.782 1029.55 412.733V387.023C1027.94 388.348 1025.19 389.58 1021.31 390.716C1017.52 391.852 1013.26 392.847 1008.52 393.699C1003.79 394.551 999.102 395.309 994.462 395.972C989.821 396.634 985.797 397.203 982.388 397.676C974.717 398.718 967.852 400.422 961.791 402.79C955.731 405.157 950.948 408.472 947.445 412.733C943.941 416.9 942.189 422.297 942.189 428.926C942.189 438.396 945.645 445.545 952.558 450.375C959.471 455.205 968.278 457.619 978.979 457.619ZM1132.53 491V272.818H1183.95V491H1132.53ZM1158.38 241.852C1150.24 241.852 1143.23 239.153 1137.36 233.756C1131.49 228.263 1128.55 221.682 1128.55 214.011C1128.55 206.246 1131.49 199.665 1137.36 194.267C1143.23 188.775 1150.24 186.028 1158.38 186.028C1166.62 186.028 1173.63 188.775 1179.4 194.267C1185.28 199.665 1188.21 206.246 1188.21 214.011C1188.21 221.682 1185.28 228.263 1179.4 233.756C1173.63 239.153 1166.62 241.852 1158.38 241.852ZM1317.79 494.835C1300.65 494.835 1285.31 490.432 1271.77 481.625C1258.23 472.818 1247.53 460.034 1239.67 443.273C1231.81 426.511 1227.88 406.152 1227.88 382.193C1227.88 357.951 1231.86 337.496 1239.81 320.83C1247.86 304.068 1258.7 291.426 1272.34 282.903C1285.97 274.286 1301.17 269.977 1317.93 269.977C1330.72 269.977 1341.23 272.155 1349.47 276.511C1357.71 280.773 1364.24 285.934 1369.07 291.994C1373.9 297.96 1377.64 303.595 1380.29 308.898H1382.42V200.091H1433.99V491H1383.42V456.625H1380.29C1377.64 461.928 1373.81 467.562 1368.79 473.528C1363.77 479.4 1357.14 484.419 1348.9 488.585C1340.66 492.752 1330.29 494.835 1317.79 494.835ZM1332.14 452.648C1343.03 452.648 1352.31 449.712 1359.98 443.841C1367.65 437.875 1373.47 429.589 1377.45 418.983C1381.43 408.377 1383.42 396.019 1383.42 381.909C1383.42 367.799 1381.43 355.536 1377.45 345.119C1373.57 334.703 1367.79 326.606 1360.12 320.83C1352.55 315.053 1343.22 312.165 1332.14 312.165C1320.68 312.165 1311.12 315.148 1303.45 321.114C1295.78 327.08 1290 335.318 1286.12 345.83C1282.23 356.341 1280.29 368.367 1280.29 381.909C1280.29 395.545 1282.23 407.714 1286.12 418.415C1290.09 429.021 1295.92 437.402 1303.59 443.557C1311.35 449.617 1320.87 452.648 1332.14 452.648Z" fill="white" fill-opacity="0.85"/>
</g>
<g filter="url(#filter1_d_19_2)">
<path d="M433.411 215.701C430.822 224.486 421.886 229.422 413.452 226.726C405.017 224.029 400.278 214.722 402.867 205.937C405.456 197.152 414.392 192.216 422.826 194.913C431.261 197.609 436 206.916 433.411 215.701Z" fill="white"/>
</g>
<g filter="url(#filter2_i_19_2)">
<rect x="63" y="104" width="560" height="525" rx="50" fill="#0167DF"/>
</g>
<g filter="url(#filter3_d_19_2)">
<rect width="7.81551" height="184.296" transform="matrix(0.72242 0.691455 -0.661592 0.749864 371.398 406.825)" fill="white"/>
</g>
<g filter="url(#filter4_d_19_2)">
<rect width="7.80876" height="116.308" transform="matrix(0.737017 -0.675874 0.645571 0.7637 297.108 328.927)" fill="white"/>
</g>
<g filter="url(#filter5_d_19_2)">
<rect width="7.84145" height="183.686" transform="matrix(0.663769 0.747937 -0.720393 0.693567 417.652 207.104)" fill="white"/>
</g>
<g filter="url(#filter6_d_19_2)">
<rect width="6.95349" height="151.855" transform="matrix(0.766686 0.642022 -0.697808 0.716285 500.084 234.051)" fill="white"/>
</g>
<g filter="url(#filter7_d_19_2)">
<rect width="6.95349" height="151.855" transform="matrix(0.766686 0.642022 -0.697808 0.716285 324.187 188.442)" fill="white"/>
</g>
<g filter="url(#filter8_d_19_2)">
<rect width="6.42375" height="103.696" transform="matrix(0.842145 -0.539251 0.605667 0.795718 217.741 298.846)" fill="white"/>
</g>
<g filter="url(#filter9_d_19_2)">
<rect width="7.00012" height="102.68" transform="matrix(0.789469 0.61379 -0.661242 0.750173 286.102 378.165)" fill="white"/>
</g>
<g filter="url(#filter10_d_19_2)">
<ellipse cx="16.0831" cy="16.5394" rx="16.0831" ry="16.5394" transform="matrix(0.910293 0.413965 -0.377209 0.926128 208.433 439.664)" fill="white"/>
</g>
<g filter="url(#filter11_d_19_2)">
<rect width="6.42375" height="103.696" transform="matrix(0.842145 -0.539251 0.605667 0.795718 397.952 345.335)" fill="white"/>
</g>
<g filter="url(#filter12_d_19_2)">
<rect width="7.00012" height="102.68" transform="matrix(0.789469 0.61379 -0.661242 0.750173 455.625 420.407)" fill="white"/>
</g>
<g filter="url(#filter13_d_19_2)">
<ellipse cx="16.0831" cy="16.5394" rx="16.0831" ry="16.5394" transform="matrix(0.910293 0.413965 -0.377209 0.926128 447.492 401.771)" fill="white"/>
</g>
<g filter="url(#filter14_d_19_2)">
<ellipse cx="16.0831" cy="16.5394" rx="16.0831" ry="16.5394" transform="matrix(0.910293 0.413965 -0.377209 0.926128 388.704 323.236)" fill="white"/>
</g>
<g filter="url(#filter15_d_19_2)">
<path d="M338.611 194.498C336.022 203.283 327.086 208.218 318.652 205.522C310.217 202.826 305.479 193.518 308.067 184.733C310.656 175.948 319.592 171.013 328.027 173.709C336.461 176.405 341.2 185.713 338.611 194.498Z" fill="white"/>
</g>
<g filter="url(#filter16_d_19_2)">
<ellipse cx="16.0332" cy="16.5828" rx="16.0332" ry="16.5828" transform="matrix(0.95251 0.304506 -0.282668 0.959218 286.892 304.62)" fill="white"/>
</g>
<g filter="url(#filter17_d_19_2)">
<ellipse cx="16.0831" cy="16.5394" rx="16.0831" ry="16.5394" transform="matrix(0.910293 0.413965 -0.377209 0.926128 212.086 282.098)" fill="white"/>
</g>
<g filter="url(#filter18_d_19_2)">
<ellipse cx="16.0831" cy="16.5394" rx="16.0831" ry="16.5394" transform="matrix(0.910293 0.413965 -0.377209 0.926128 274.625 364.749)" fill="white"/>
</g>
<g filter="url(#filter19_d_19_2)">
<ellipse cx="16.0332" cy="16.5828" rx="16.0332" ry="16.5828" transform="matrix(0.95251 0.304506 -0.282668 0.959218 359.58 389.123)" fill="white"/>
</g>
<g filter="url(#filter20_d_19_2)">
<path d="M433.411 215.701C430.822 224.486 421.886 229.422 413.452 226.726C405.017 224.029 400.278 214.722 402.867 205.937C405.456 197.152 414.392 192.216 422.826 194.913C431.261 197.609 436 206.916 433.411 215.701Z" fill="white"/>
</g>
<g filter="url(#filter21_d_19_2)">
<ellipse cx="16.0831" cy="16.5394" rx="16.0831" ry="16.5394" transform="matrix(0.910293 0.413965 -0.377209 0.926128 492.222 215.416)" fill="white"/>
</g>
<g filter="url(#filter22_d_19_2)">
<ellipse cx="16.0831" cy="16.5394" rx="16.0831" ry="16.5394" transform="matrix(0.910293 0.413965 -0.377209 0.926128 379.758 478.976)" fill="white"/>
</g>
<g filter="url(#filter23_d_19_2)">
<ellipse cx="16.0332" cy="16.5828" rx="16.0332" ry="16.5828" transform="matrix(0.95251 0.304506 -0.282668 0.959218 247.009 521.616)" fill="white"/>
</g>
</g>
<defs>
<filter id="filter0_i_19_2" x="672.693" y="186.028" width="761.293" height="313.375" filterUnits="userSpaceOnUse" color-interpolation-filters="sRGB">
<feFlood flood-opacity="0" result="BackgroundImageFix"/>
<feBlend mode="normal" in="SourceGraphic" in2="BackgroundImageFix" result="shape"/>
<feColorMatrix in="SourceAlpha" type="matrix" values="0 0 0 0 0 0 0 0 0 0 0 0 0 0 0 0 0 0 127 0" result="hardAlpha"/>
<feOffset dy="4"/>
<feGaussianBlur stdDeviation="2"/>
<feComposite in2="hardAlpha" operator="arithmetic" k2="-1" k3="1"/>
<feColorMatrix type="matrix" values="0 0 0 0 0 0 0 0 0 0 0 0 0 0 0 0 0 0 0.25 0"/>
<feBlend mode="normal" in2="shape" result="effect1_innerShadow_19_2"/>
</filter>
<filter id="filter1_d_19_2" x="398.16" y="194.176" width="39.9584" height="41.2866" filterUnits="userSpaceOnUse" color-interpolation-filters="sRGB">
<feFlood flood-opacity="0" result="BackgroundImageFix"/>
<feColorMatrix in="SourceAlpha" type="matrix" values="0 0 0 0 0 0 0 0 0 0 0 0 0 0 0 0 0 0 127 0" result="hardAlpha"/>
<feOffset dy="4"/>
<feGaussianBlur stdDeviation="2"/>
<feComposite in2="hardAlpha" operator="out"/>
<feColorMatrix type="matrix" values="0 0 0 0 0 0 0 0 0 0 0 0 0 0 0 0 0 0 0.25 0"/>
<feBlend mode="normal" in2="BackgroundImageFix" result="effect1_dropShadow_19_2"/>
<feBlend mode="normal" in="SourceGraphic" in2="effect1_dropShadow_19_2" result="shape"/>
</filter>
<filter id="filter2_i_19_2" x="63" y="104" width="560" height="529" filterUnits="userSpaceOnUse" color-interpolation-filters="sRGB">
<feFlood flood-opacity="0" result="BackgroundImageFix"/>
<feBlend mode="normal" in="SourceGraphic" in2="BackgroundImageFix" result="shape"/>
<feColorMatrix in="SourceAlpha" type="matrix" values="0 0 0 0 0 0 0 0 0 0 0 0 0 0 0 0 0 0 127 0" result="hardAlpha"/>
<feOffset dy="4"/>
<feGaussianBlur stdDeviation="2"/>
<feComposite in2="hardAlpha" operator="arithmetic" k2="-1" k3="1"/>
<feColorMatrix type="matrix" values="0 0 0 0 0 0 0 0 0 0 0 0 0 0 0 0 0 0 0.25 0"/>
<feBlend mode="normal" in2="shape" result="effect1_innerShadow_19_2"/>
</filter>
<filter id="filter3_d_19_2" x="245.47" y="406.825" width="135.575" height="151.601" filterUnits="userSpaceOnUse" color-interpolation-filters="sRGB">
<feFlood flood-opacity="0" result="BackgroundImageFix"/>
<feColorMatrix in="SourceAlpha" type="matrix" values="0 0 0 0 0 0 0 0 0 0 0 0 0 0 0 0 0 0 127 0" result="hardAlpha"/>
<feOffset dy="4"/>
<feGaussianBlur stdDeviation="2"/>
<feComposite in2="hardAlpha" operator="out"/>
<feColorMatrix type="matrix" values="0 0 0 0 0 0 0 0 0 0 0 0 0 0 0 0 0 0 0.25 0"/>
<feBlend mode="normal" in2="BackgroundImageFix" result="effect1_dropShadow_19_2"/>
<feBlend mode="normal" in="SourceGraphic" in2="effect1_dropShadow_19_2" result="shape"/>
</filter>
<filter id="filter4_d_19_2" x="293.108" y="323.65" width="88.8403" height="102.102" filterUnits="userSpaceOnUse" color-interpolation-filters="sRGB">
<feFlood flood-opacity="0" result="BackgroundImageFix"/>
<feColorMatrix in="SourceAlpha" type="matrix" values="0 0 0 0 0 0 0 0 0 0 0 0 0 0 0 0 0 0 127 0" result="hardAlpha"/>
<feOffset dy="4"/>
<feGaussianBlur stdDeviation="2"/>
<feComposite in2="hardAlpha" operator="out"/>
<feColorMatrix type="matrix" values="0 0 0 0 0 0 0 0 0 0 0 0 0 0 0 0 0 0 0.25 0"/>
<feBlend mode="normal" in2="BackgroundImageFix" result="effect1_dropShadow_19_2"/>
<feBlend mode="normal" in="SourceGraphic" in2="effect1_dropShadow_19_2" result="shape"/>
</filter>
<filter id="filter5_d_19_2" x="281.326" y="207.104" width="145.531" height="141.264" filterUnits="userSpaceOnUse" color-interpolation-filters="sRGB">
<feFlood flood-opacity="0" result="BackgroundImageFix"/>
<feColorMatrix in="SourceAlpha" type="matrix" values="0 0 0 0 0 0 0 0 0 0 0 0 0 0 0 0 0 0 127 0" result="hardAlpha"/>
<feOffset dy="4"/>
<feGaussianBlur stdDeviation="2"/>
<feComposite in2="hardAlpha" operator="out"/>
<feColorMatrix type="matrix" values="0 0 0 0 0 0 0 0 0 0 0 0 0 0 0 0 0 0 0.25 0"/>
<feBlend mode="normal" in2="BackgroundImageFix" result="effect1_dropShadow_19_2"/>
<feBlend mode="normal" in="SourceGraphic" in2="effect1_dropShadow_19_2" result="shape"/>
</filter>
<filter id="filter6_d_19_2" x="390.118" y="234.051" width="119.297" height="121.236" filterUnits="userSpaceOnUse" color-interpolation-filters="sRGB">
<feFlood flood-opacity="0" result="BackgroundImageFix"/>
<feColorMatrix in="SourceAlpha" type="matrix" values="0 0 0 0 0 0 0 0 0 0 0 0 0 0 0 0 0 0 127 0" result="hardAlpha"/>
<feOffset dy="4"/>
<feGaussianBlur stdDeviation="2"/>
<feComposite in2="hardAlpha" operator="out"/>
<feColorMatrix type="matrix" values="0 0 0 0 0 0 0 0 0 0 0 0 0 0 0 0 0 0 0.25 0"/>
<feBlend mode="normal" in2="BackgroundImageFix" result="effect1_dropShadow_19_2"/>
<feBlend mode="normal" in="SourceGraphic" in2="effect1_dropShadow_19_2" result="shape"/>
</filter>
<filter id="filter7_d_19_2" x="214.222" y="188.442" width="119.297" height="121.236" filterUnits="userSpaceOnUse" color-interpolation-filters="sRGB">
<feFlood flood-opacity="0" result="BackgroundImageFix"/>
<feColorMatrix in="SourceAlpha" type="matrix" values="0 0 0 0 0 0 0 0 0 0 0 0 0 0 0 0 0 0 127 0" result="hardAlpha"/>
<feOffset dy="4"/>
<feGaussianBlur stdDeviation="2"/>
<feComposite in2="hardAlpha" operator="out"/>
<feColorMatrix type="matrix" values="0 0 0 0 0 0 0 0 0 0 0 0 0 0 0 0 0 0 0.25 0"/>
<feBlend mode="normal" in2="BackgroundImageFix" result="effect1_dropShadow_19_2"/>
<feBlend mode="normal" in="SourceGraphic" in2="effect1_dropShadow_19_2" result="shape"/>
</filter>
<filter id="filter8_d_19_2" x="213.741" y="295.382" width="76.2151" height="93.9771" filterUnits="userSpaceOnUse" color-interpolation-filters="sRGB">
<feFlood flood-opacity="0" result="BackgroundImageFix"/>
<feColorMatrix in="SourceAlpha" type="matrix" values="0 0 0 0 0 0 0 0 0 0 0 0 0 0 0 0 0 0 127 0" result="hardAlpha"/>
<feOffset dy="4"/>
<feGaussianBlur stdDeviation="2"/>
<feComposite in2="hardAlpha" operator="out"/>
<feColorMatrix type="matrix" values="0 0 0 0 0 0 0 0 0 0 0 0 0 0 0 0 0 0 0.25 0"/>
<feBlend mode="normal" in2="BackgroundImageFix" result="effect1_dropShadow_19_2"/>
<feBlend mode="normal" in="SourceGraphic" in2="effect1_dropShadow_19_2" result="shape"/>
</filter>
<filter id="filter9_d_19_2" x="214.206" y="378.165" width="81.423" height="89.3246" filterUnits="userSpaceOnUse" color-interpolation-filters="sRGB">
<feFlood flood-opacity="0" result="BackgroundImageFix"/>
<feColorMatrix in="SourceAlpha" type="matrix" values="0 0 0 0 0 0 0 0 0 0 0 0 0 0 0 0 0 0 127 0" result="hardAlpha"/>
<feOffset dy="4"/>
<feGaussianBlur stdDeviation="2"/>
<feComposite in2="hardAlpha" operator="out"/>
<feColorMatrix type="matrix" values="0 0 0 0 0 0 0 0 0 0 0 0 0 0 0 0 0 0 0.25 0"/>
<feBlend mode="normal" in2="BackgroundImageFix" result="effect1_dropShadow_19_2"/>
<feBlend mode="normal" in="SourceGraphic" in2="effect1_dropShadow_19_2" result="shape"/>
</filter>
<filter id="filter10_d_19_2" x="196.916" y="444.933" width="39.8367" height="41.4124" filterUnits="userSpaceOnUse" color-interpolation-filters="sRGB">
<feFlood flood-opacity="0" result="BackgroundImageFix"/>
<feColorMatrix in="SourceAlpha" type="matrix" values="0 0 0 0 0 0 0 0 0 0 0 0 0 0 0 0 0 0 127 0" result="hardAlpha"/>
<feOffset dy="4"/>
<feGaussianBlur stdDeviation="2"/>
<feComposite in2="hardAlpha" operator="out"/>
<feColorMatrix type="matrix" values="0 0 0 0 0 0 0 0 0 0 0 0 0 0 0 0 0 0 0.25 0"/>
<feBlend mode="normal" in2="BackgroundImageFix" result="effect1_dropShadow_19_2"/>
<feBlend mode="normal" in="SourceGraphic" in2="effect1_dropShadow_19_2" result="shape"/>
</filter>
<filter id="filter11_d_19_2" x="393.952" y="341.871" width="76.2152" height="93.9771" filterUnits="userSpaceOnUse" color-interpolation-filters="sRGB">
<feFlood flood-opacity="0" result="BackgroundImageFix"/>
<feColorMatrix in="SourceAlpha" type="matrix" values="0 0 0 0 0 0 0 0 0 0 0 0 0 0 0 0 0 0 127 0" result="hardAlpha"/>
<feOffset dy="4"/>
<feGaussianBlur stdDeviation="2"/>
<feComposite in2="hardAlpha" operator="out"/>
<feColorMatrix type="matrix" values="0 0 0 0 0 0 0 0 0 0 0 0 0 0 0 0 0 0 0.25 0"/>
<feBlend mode="normal" in2="BackgroundImageFix" result="effect1_dropShadow_19_2"/>
<feBlend mode="normal" in="SourceGraphic" in2="effect1_dropShadow_19_2" result="shape"/>
</filter>
<filter id="filter12_d_19_2" x="383.728" y="420.407" width="81.423" height="89.3246" filterUnits="userSpaceOnUse" color-interpolation-filters="sRGB">
<feFlood flood-opacity="0" result="BackgroundImageFix"/>
<feColorMatrix in="SourceAlpha" type="matrix" values="0 0 0 0 0 0 0 0 0 0 0 0 0 0 0 0 0 0 127 0" result="hardAlpha"/>
<feOffset dy="4"/>
<feGaussianBlur stdDeviation="2"/>
<feComposite in2="hardAlpha" operator="out"/>
<feColorMatrix type="matrix" values="0 0 0 0 0 0 0 0 0 0 0 0 0 0 0 0 0 0 0.25 0"/>
<feBlend mode="normal" in2="BackgroundImageFix" result="effect1_dropShadow_19_2"/>
<feBlend mode="normal" in="SourceGraphic" in2="effect1_dropShadow_19_2" result="shape"/>
</filter>
<filter id="filter13_d_19_2" x="435.975" y="407.04" width="39.8367" height="41.4124" filterUnits="userSpaceOnUse" color-interpolation-filters="sRGB">
<feFlood flood-opacity="0" result="BackgroundImageFix"/>
<feColorMatrix in="SourceAlpha" type="matrix" values="0 0 0 0 0 0 0 0 0 0 0 0 0 0 0 0 0 0 127 0" result="hardAlpha"/>
<feOffset dy="4"/>
<feGaussianBlur stdDeviation="2"/>
<feComposite in2="hardAlpha" operator="out"/>
<feColorMatrix type="matrix" values="0 0 0 0 0 0 0 0 0 0 0 0 0 0 0 0 0 0 0.25 0"/>
<feBlend mode="normal" in2="BackgroundImageFix" result="effect1_dropShadow_19_2"/>
<feBlend mode="normal" in="SourceGraphic" in2="effect1_dropShadow_19_2" result="shape"/>
</filter>
<filter id="filter14_d_19_2" x="377.187" y="328.505" width="39.8367" height="41.4124" filterUnits="userSpaceOnUse" color-interpolation-filters="sRGB">
<feFlood flood-opacity="0" result="BackgroundImageFix"/>
<feColorMatrix in="SourceAlpha" type="matrix" values="0 0 0 0 0 0 0 0 0 0 0 0 0 0 0 0 0 0 127 0" result="hardAlpha"/>
<feOffset dy="4"/>
<feGaussianBlur stdDeviation="2"/>
<feComposite in2="hardAlpha" operator="out"/>
<feColorMatrix type="matrix" values="0 0 0 0 0 0 0 0 0 0 0 0 0 0 0 0 0 0 0.25 0"/>
<feBlend mode="normal" in2="BackgroundImageFix" result="effect1_dropShadow_19_2"/>
<feBlend mode="normal" in="SourceGraphic" in2="effect1_dropShadow_19_2" result="shape"/>
</filter>
<filter id="filter15_d_19_2" x="303.36" y="172.972" width="39.9584" height="41.2866" filterUnits="userSpaceOnUse" color-interpolation-filters="sRGB">
<feFlood flood-opacity="0" result="BackgroundImageFix"/>
<feColorMatrix in="SourceAlpha" type="matrix" values="0 0 0 0 0 0 0 0 0 0 0 0 0 0 0 0 0 0 127 0" result="hardAlpha"/>
<feOffset dy="4"/>
<feGaussianBlur stdDeviation="2"/>
<feComposite in2="hardAlpha" operator="out"/>
<feColorMatrix type="matrix" values="0 0 0 0 0 0 0 0 0 0 0 0 0 0 0 0 0 0 0.25 0"/>
<feBlend mode="normal" in2="BackgroundImageFix" result="effect1_dropShadow_19_2"/>
<feBlend mode="normal" in="SourceGraphic" in2="effect1_dropShadow_19_2" result="shape"/>
</filter>
<filter id="filter16_d_19_2" x="277.497" y="308.765" width="39.9585" height="41.2866" filterUnits="userSpaceOnUse" color-interpolation-filters="sRGB">
<feFlood flood-opacity="0" result="BackgroundImageFix"/>
<feColorMatrix in="SourceAlpha" type="matrix" values="0 0 0 0 0 0 0 0 0 0 0 0 0 0 0 0 0 0 127 0" result="hardAlpha"/>
<feOffset dy="4"/>
<feGaussianBlur stdDeviation="2"/>
<feComposite in2="hardAlpha" operator="out"/>
<feColorMatrix type="matrix" values="0 0 0 0 0 0 0 0 0 0 0 0 0 0 0 0 0 0 0.25 0"/>
<feBlend mode="normal" in2="BackgroundImageFix" result="effect1_dropShadow_19_2"/>
<feBlend mode="normal" in="SourceGraphic" in2="effect1_dropShadow_19_2" result="shape"/>
</filter>
<filter id="filter17_d_19_2" x="200.569" y="287.367" width="39.8367" height="41.4124" filterUnits="userSpaceOnUse" color-interpolation-filters="sRGB">
<feFlood flood-opacity="0" result="BackgroundImageFix"/>
<feColorMatrix in="SourceAlpha" type="matrix" values="0 0 0 0 0 0 0 0 0 0 0 0 0 0 0 0 0 0 127 0" result="hardAlpha"/>
<feOffset dy="4"/>
<feGaussianBlur stdDeviation="2"/>
<feComposite in2="hardAlpha" operator="out"/>
<feColorMatrix type="matrix" values="0 0 0 0 0 0 0 0 0 0 0 0 0 0 0 0 0 0 0.25 0"/>
<feBlend mode="normal" in2="BackgroundImageFix" result="effect1_dropShadow_19_2"/>
<feBlend mode="normal" in="SourceGraphic" in2="effect1_dropShadow_19_2" result="shape"/>
</filter>
<filter id="filter18_d_19_2" x="263.108" y="370.018" width="39.8367" height="41.4124" filterUnits="userSpaceOnUse" color-interpolation-filters="sRGB">
<feFlood flood-opacity="0" result="BackgroundImageFix"/>
<feColorMatrix in="SourceAlpha" type="matrix" values="0 0 0 0 0 0 0 0 0 0 0 0 0 0 0 0 0 0 127 0" result="hardAlpha"/>
<feOffset dy="4"/>
<feGaussianBlur stdDeviation="2"/>
<feComposite in2="hardAlpha" operator="out"/>
<feColorMatrix type="matrix" values="0 0 0 0 0 0 0 0 0 0 0 0 0 0 0 0 0 0 0.25 0"/>
<feBlend mode="normal" in2="BackgroundImageFix" result="effect1_dropShadow_19_2"/>
<feBlend mode="normal" in="SourceGraphic" in2="effect1_dropShadow_19_2" result="shape"/>
</filter>
<filter id="filter19_d_19_2" x="350.185" y="393.268" width="39.9584" height="41.2866" filterUnits="userSpaceOnUse" color-interpolation-filters="sRGB">
<feFlood flood-opacity="0" result="BackgroundImageFix"/>
<feColorMatrix in="SourceAlpha" type="matrix" values="0 0 0 0 0 0 0 0 0 0 0 0 0 0 0 0 0 0 127 0" result="hardAlpha"/>
<feOffset dy="4"/>
<feGaussianBlur stdDeviation="2"/>
<feComposite in2="hardAlpha" operator="out"/>
<feColorMatrix type="matrix" values="0 0 0 0 0 0 0 0 0 0 0 0 0 0 0 0 0 0 0.25 0"/>
<feBlend mode="normal" in2="BackgroundImageFix" result="effect1_dropShadow_19_2"/>
<feBlend mode="normal" in="SourceGraphic" in2="effect1_dropShadow_19_2" result="shape"/>
</filter>
<filter id="filter20_d_19_2" x="398.16" y="194.176" width="39.9584" height="41.2866" filterUnits="userSpaceOnUse" color-interpolation-filters="sRGB">
<feFlood flood-opacity="0" result="BackgroundImageFix"/>
<feColorMatrix in="SourceAlpha" type="matrix" values="0 0 0 0 0 0 0 0 0 0 0 0 0 0 0 0 0 0 127 0" result="hardAlpha"/>
<feOffset dy="4"/>
<feGaussianBlur stdDeviation="2"/>
<feComposite in2="hardAlpha" operator="out"/>
<feColorMatrix type="matrix" values="0 0 0 0 0 0 0 0 0 0 0 0 0 0 0 0 0 0 0.25 0"/>
<feBlend mode="normal" in2="BackgroundImageFix" result="effect1_dropShadow_19_2"/>
<feBlend mode="normal" in="SourceGraphic" in2="effect1_dropShadow_19_2" result="shape"/>
</filter>
<filter id="filter21_d_19_2" x="480.705" y="220.685" width="39.8367" height="41.4124" filterUnits="userSpaceOnUse" color-interpolation-filters="sRGB">
<feFlood flood-opacity="0" result="BackgroundImageFix"/>
<feColorMatrix in="SourceAlpha" type="matrix" values="0 0 0 0 0 0 0 0 0 0 0 0 0 0 0 0 0 0 127 0" result="hardAlpha"/>
<feOffset dy="4"/>
<feGaussianBlur stdDeviation="2"/>
<feComposite in2="hardAlpha" operator="out"/>
<feColorMatrix type="matrix" values="0 0 0 0 0 0 0 0 0 0 0 0 0 0 0 0 0 0 0.25 0"/>
<feBlend mode="normal" in2="BackgroundImageFix" result="effect1_dropShadow_19_2"/>
<feBlend mode="normal" in="SourceGraphic" in2="effect1_dropShadow_19_2" result="shape"/>
</filter>
<filter id="filter22_d_19_2" x="368.241" y="484.245" width="39.8367" height="41.4124" filterUnits="userSpaceOnUse" color-interpolation-filters="sRGB">
<feFlood flood-opacity="0" result="BackgroundImageFix"/>
<feColorMatrix in="SourceAlpha" type="matrix" values="0 0 0 0 0 0 0 0 0 0 0 0 0 0 0 0 0 0 127 0" result="hardAlpha"/>
<feOffset dy="4"/>
<feGaussianBlur stdDeviation="2"/>
<feComposite in2="hardAlpha" operator="out"/>
<feColorMatrix type="matrix" values="0 0 0 0 0 0 0 0 0 0 0 0 0 0 0 0 0 0 0.25 0"/>
<feBlend mode="normal" in2="BackgroundImageFix" result="effect1_dropShadow_19_2"/>
<feBlend mode="normal" in="SourceGraphic" in2="effect1_dropShadow_19_2" result="shape"/>
</filter>
<filter id="filter23_d_19_2" x="237.615" y="525.761" width="39.9585" height="41.2866" filterUnits="userSpaceOnUse" color-interpolation-filters="sRGB">
<feFlood flood-opacity="0" result="BackgroundImageFix"/>
<feColorMatrix in="SourceAlpha" type="matrix" values="0 0 0 0 0 0 0 0 0 0 0 0 0 0 0 0 0 0 127 0" result="hardAlpha"/>
<feOffset dy="4"/>
<feGaussianBlur stdDeviation="2"/>
<feComposite in2="hardAlpha" operator="out"/>
<feColorMatrix type="matrix" values="0 0 0 0 0 0 0 0 0 0 0 0 0 0 0 0 0 0 0.25 0"/>
<feBlend mode="normal" in2="BackgroundImageFix" result="effect1_dropShadow_19_2"/>
<feBlend mode="normal" in="SourceGraphic" in2="effect1_dropShadow_19_2" result="shape"/>
</filter>
<clipPath id="clip0_19_2">
<rect width="1548" height="789" fill="white"/>
</clipPath>
</defs>
</svg>
