<svg width="639" height="599" viewBox="0 0 639 599" fill="none" xmlns="http://www.w3.org/2000/svg">
<rect width="639" height="599" fill="#1E1E1E"/>
<path d="M398.411 150.701C395.822 159.486 386.886 164.422 378.452 161.726C370.017 159.029 365.278 149.722 367.867 140.937C370.456 132.152 379.392 127.216 387.826 129.913C396.261 132.609 401 141.916 398.411 150.701Z" fill="white"/>
<rect width="639" height="599" rx="50" fill="#0167DF"/>
<path d="M398.411 150.701C395.822 159.486 386.886 164.422 378.452 161.726C370.017 159.029 365.278 149.722 367.867 140.937C370.456 132.152 379.392 127.216 387.826 129.913C396.261 132.609 401 141.916 398.411 150.701Z" fill="white"/>
<ellipse cx="16.0332" cy="16.5828" rx="16.0332" ry="16.5828" transform="matrix(0.95251 0.304506 -0.282668 0.959218 251.892 239.62)" fill="white"/>
<ellipse cx="16.0332" cy="16.5828" rx="16.0332" ry="16.5828" transform="matrix(0.95251 0.304506 -0.282668 0.959218 324.58 324.123)" fill="white"/>
<ellipse cx="16.0332" cy="16.5828" rx="16.0332" ry="16.5828" transform="matrix(0.95251 0.304506 -0.282668 0.959218 212.009 456.616)" fill="white"/>
<rect width="7.81551" height="184.296" transform="matrix(0.72242 0.691455 -0.661592 0.749864 336.398 341.825)" fill="white"/>
<rect width="7.80876" height="116.308" transform="matrix(0.737017 -0.675874 0.645571 0.7637 262.108 263.927)" fill="white"/>
<rect width="7.84145" height="183.686" transform="matrix(0.663769 0.747937 -0.720393 0.693567 382.652 142.104)" fill="white"/>
<ellipse cx="16.0831" cy="16.5394" rx="16.0831" ry="16.5394" transform="matrix(0.910293 0.413965 -0.377209 0.926128 239.625 299.749)" fill="white"/>
<ellipse cx="16.0831" cy="16.5394" rx="16.0831" ry="16.5394" transform="matrix(0.910293 0.413965 -0.377209 0.926128 457.222 150.416)" fill="white"/>
<rect width="6.95349" height="151.855" transform="matrix(0.766686 0.642022 -0.697808 0.716285 465.084 169.051)" fill="white"/>
<rect width="6.95349" height="151.855" transform="matrix(0.766686 0.642022 -0.697808 0.716285 289.187 123.442)" fill="white"/>
<ellipse cx="16.0831" cy="16.5394" rx="16.0831" ry="16.5394" transform="matrix(0.910293 0.413965 -0.377209 0.926128 177.086 217.098)" fill="white"/>
<rect width="6.42375" height="103.696" transform="matrix(0.842145 -0.539251 0.605667 0.795718 182.741 233.846)" fill="white"/>
<rect width="7.00012" height="102.68" transform="matrix(0.789469 0.61379 -0.661242 0.750173 251.102 313.165)" fill="white"/>
<ellipse cx="16.0831" cy="16.5394" rx="16.0831" ry="16.5394" transform="matrix(0.910293 0.413965 -0.377209 0.926128 173.433 374.664)" fill="white"/>
<ellipse cx="16.0831" cy="16.5394" rx="16.0831" ry="16.5394" transform="matrix(0.910293 0.413965 -0.377209 0.926128 344.758 413.976)" fill="white"/>
<rect width="6.42375" height="103.696" transform="matrix(0.842145 -0.539251 0.605667 0.795718 362.952 280.335)" fill="white"/>
<rect width="7.00012" height="102.68" transform="matrix(0.789469 0.61379 -0.661242 0.750173 420.625 355.407)" fill="white"/>
<ellipse cx="16.0831" cy="16.5394" rx="16.0831" ry="16.5394" transform="matrix(0.910293 0.413965 -0.377209 0.926128 412.492 336.771)" fill="white"/>
<ellipse cx="16.0831" cy="16.5394" rx="16.0831" ry="16.5394" transform="matrix(0.910293 0.413965 -0.377209 0.926128 353.704 258.236)" fill="white"/>
<path d="M303.611 129.498C301.022 138.283 292.086 143.218 283.652 140.522C275.217 137.826 270.479 128.518 273.067 119.733C275.656 110.948 284.592 106.013 293.027 108.709C301.461 111.405 306.2 120.713 303.611 129.498Z" fill="white"/>
</svg>
