<svg width="883" height="843" viewBox="0 0 883 843" fill="none" xmlns="http://www.w3.org/2000/svg">
<g filter="url(#filter0_i_19_111)">
<rect x="20" y="26" width="844" height="791" rx="50" fill="#0167DF"/>
</g>
<path d="M579.61 142.508C598.598 147.736 610.352 166.234 604.016 184.751C597.679 203.268 576.379 212.666 557.39 207.439C538.402 202.211 526.648 183.714 532.984 165.196C539.321 146.679 560.621 137.281 579.61 142.508Z" fill="white" stroke="white" stroke-width="15"/>
<rect x="-0.420271" y="-10.0089" width="28.5512" height="330.556" transform="matrix(0.771662 0.636033 -0.715626 0.698484 474.674 484.834)" fill="white" stroke="white" stroke-width="15"/>
<rect x="-11.1398" y="-0.704079" width="28.5819" height="213.514" transform="matrix(0.784794 -0.619757 0.700518 0.713634 342.437 356.24)" fill="white" stroke="white" stroke-width="15"/>
<rect x="0.391206" y="-10.0098" width="28.4322" height="333.353" transform="matrix(0.717668 0.696385 -0.769829 0.63825 560.003 165.155)" fill="white" stroke="white" stroke-width="15"/>
<rect x="-0.463931" y="-9.35399" width="27.1731" height="276.938" transform="matrix(0.811102 0.584905 -0.749244 0.662294 713.171 209.139)" fill="white" stroke="white" stroke-width="15"/>
<rect x="-0.463931" y="-9.35399" width="27.1731" height="276.938" transform="matrix(0.811102 0.584905 -0.749244 0.662294 387.399 136.397)" fill="white" stroke="white" stroke-width="15"/>
<rect x="-11.5347" y="-1.99796" width="26.4415" height="190.639" transform="matrix(0.87569 -0.482873 0.662268 0.749267 197.238 309.297)" fill="white" stroke="white" stroke-width="15"/>
<rect x="-0.867431" y="-9.4137" width="27.3174" height="190.8" transform="matrix(0.830955 0.55634 -0.715298 0.69882 317.079 439.522)" fill="white" stroke="white" stroke-width="15"/>
<path d="M210.431 543.797C228.763 550.976 238.142 570.656 229.768 588.36C221.395 606.065 199.24 613.396 180.908 606.217C162.576 599.038 153.197 579.358 161.571 561.653C169.945 543.949 192.099 536.618 210.431 543.797Z" fill="white" stroke="white" stroke-width="15"/>
<rect x="-11.5347" y="-1.99796" width="26.4415" height="190.639" transform="matrix(0.87569 -0.482873 0.662268 0.749267 531.001 383.443)" fill="white" stroke="white" stroke-width="15"/>
<rect x="-0.867431" y="-9.4137" width="27.3174" height="190.8" transform="matrix(0.830955 0.55634 -0.715298 0.69882 631.045 506.893)" fill="white" stroke="white" stroke-width="15"/>
<path d="M653.184 483.363C671.516 490.542 680.895 510.221 672.522 527.926C664.148 545.63 641.993 552.962 623.661 545.783C605.33 538.604 595.951 518.923 604.324 501.219C612.698 483.514 634.853 476.184 653.184 483.363Z" fill="white" stroke="white" stroke-width="15"/>
<path d="M544.305 358.106C562.637 365.285 572.016 384.965 563.643 402.669C555.269 420.374 533.114 427.705 514.782 420.526C496.45 413.347 487.072 393.667 495.445 375.962C503.819 358.258 525.973 350.927 544.305 358.106Z" fill="white" stroke="white" stroke-width="15"/>
<path d="M404.034 108.691C423.023 113.918 434.777 132.416 428.44 150.933C422.103 169.451 400.804 178.849 381.815 173.621C362.826 168.394 351.072 149.896 357.409 131.379C363.745 112.861 385.045 103.463 404.034 108.691Z" fill="white" stroke="white" stroke-width="15"/>
<path d="M356.134 325.268C375.123 330.495 386.876 348.993 380.54 367.51C374.203 386.028 352.903 395.426 333.915 390.198C314.926 384.971 303.172 366.473 309.509 347.956C315.845 329.438 337.145 320.04 356.134 325.268Z" fill="white" stroke="white" stroke-width="15"/>
<path d="M217.198 292.495C235.529 299.675 244.908 319.354 236.535 337.059C228.161 354.763 206.007 362.095 187.675 354.916C169.343 347.737 159.964 328.056 168.338 310.352C176.712 292.647 198.866 285.317 217.198 292.495Z" fill="white" stroke="white" stroke-width="15"/>
<path d="M333.024 424.316C351.355 431.495 360.735 451.174 352.361 468.879C343.987 486.583 321.833 493.915 303.501 486.736C285.169 479.557 275.79 459.876 284.164 442.172C292.538 424.467 314.692 417.137 333.024 424.316Z" fill="white" stroke="white" stroke-width="15"/>
<path d="M490.757 460.042C509.745 465.27 521.499 483.767 515.163 502.285C508.826 520.802 487.526 530.2 468.537 524.972C449.549 519.745 437.795 501.247 444.131 482.73C450.468 464.213 471.768 454.814 490.757 460.042Z" fill="white" stroke="white" stroke-width="15"/>
<path d="M579.61 142.508C598.598 147.736 610.352 166.234 604.016 184.751C597.679 203.268 576.379 212.666 557.39 207.439C538.402 202.211 526.648 183.714 532.984 165.196C539.321 146.679 560.621 137.281 579.61 142.508Z" fill="white" stroke="white" stroke-width="15"/>
<path d="M736.027 186.143C754.359 193.322 763.738 213.002 755.365 230.707C746.991 248.411 724.836 255.743 706.505 248.564C688.173 241.385 678.794 221.704 687.168 204C695.541 186.295 717.696 178.964 736.027 186.143Z" fill="white" stroke="white" stroke-width="15"/>
<path d="M527.737 606.496C546.068 613.675 555.448 633.355 547.074 651.06C538.7 668.764 516.546 676.095 498.214 668.917C479.882 661.737 470.503 642.057 478.877 624.352C487.251 606.648 509.405 599.317 527.737 606.496Z" fill="white" stroke="white" stroke-width="15"/>
<path d="M282.269 671.356C301.258 676.583 313.011 695.081 306.675 713.598C300.338 732.116 279.038 741.514 260.05 736.286C241.061 731.059 229.307 712.561 235.644 694.044C241.98 675.526 263.28 666.128 282.269 671.356Z" fill="white" stroke="white" stroke-width="15"/>
<defs>
<filter id="filter0_i_19_111" x="20" y="26" width="844" height="795" filterUnits="userSpaceOnUse" color-interpolation-filters="sRGB">
<feFlood flood-opacity="0" result="BackgroundImageFix"/>
<feBlend mode="normal" in="SourceGraphic" in2="BackgroundImageFix" result="shape"/>
<feColorMatrix in="SourceAlpha" type="matrix" values="0 0 0 0 0 0 0 0 0 0 0 0 0 0 0 0 0 0 127 0" result="hardAlpha"/>
<feOffset dy="4"/>
<feGaussianBlur stdDeviation="2"/>
<feComposite in2="hardAlpha" operator="arithmetic" k2="-1" k3="1"/>
<feColorMatrix type="matrix" values="0 0 0 0 0 0 0 0 0 0 0 0 0 0 0 0 0 0 0.25 0"/>
<feBlend mode="normal" in2="shape" result="effect1_innerShadow_19_111"/>
</filter>
</defs>
</svg>
