<svg width="1345" height="483" viewBox="0 0 1345 483" fill="none" xmlns="http://www.w3.org/2000/svg">
<g filter="url(#filter0_i_19_2)">
<path d="M551.912 404V113.091H738.276V157.267H604.611V236.244H725.491V280.42H604.611V404H551.912ZM844.845 408.403C831.019 408.403 818.567 405.941 807.487 401.017C796.502 395.998 787.79 388.612 781.351 378.858C775.006 369.104 771.834 357.078 771.834 342.778C771.834 330.468 774.107 320.288 778.652 312.239C783.197 304.189 789.4 297.75 797.26 292.92C805.12 288.091 813.974 284.445 823.822 281.983C833.766 279.426 844.04 277.58 854.646 276.443C867.43 275.117 877.8 273.934 885.754 272.892C893.709 271.756 899.485 270.051 903.084 267.778C906.777 265.411 908.624 261.765 908.624 256.841V255.989C908.624 245.288 905.451 237.002 899.107 231.131C892.762 225.259 883.624 222.324 871.692 222.324C859.097 222.324 849.107 225.07 841.72 230.562C834.429 236.055 829.504 242.542 826.947 250.023L778.936 243.205C782.724 229.947 788.974 218.867 797.686 209.966C806.398 200.97 817.052 194.246 829.646 189.795C842.241 185.25 856.161 182.977 871.408 182.977C881.919 182.977 892.383 184.208 902.8 186.67C913.216 189.133 922.733 193.205 931.351 198.886C939.968 204.473 946.881 212.097 952.089 221.756C957.393 231.415 960.044 243.489 960.044 257.977V404H910.612V374.028H908.908C905.783 380.089 901.379 385.771 895.697 391.074C890.11 396.282 883.055 400.496 874.533 403.716C866.105 406.841 856.209 408.403 844.845 408.403ZM858.197 370.619C868.519 370.619 877.468 368.583 885.044 364.511C892.62 360.345 898.444 354.852 902.516 348.034C906.682 341.216 908.766 333.782 908.766 325.733V300.023C907.156 301.348 904.41 302.58 900.527 303.716C896.739 304.852 892.478 305.847 887.743 306.699C883.008 307.551 878.321 308.309 873.68 308.972C869.04 309.634 865.016 310.203 861.607 310.676C853.936 311.718 847.071 313.422 841.01 315.79C834.949 318.157 830.167 321.472 826.663 325.733C823.16 329.9 821.408 335.297 821.408 341.926C821.408 351.396 824.864 358.545 831.777 363.375C838.69 368.205 847.497 370.619 858.197 370.619ZM1011.75 404V185.818H1063.17V404H1011.75ZM1037.6 154.852C1029.46 154.852 1022.45 152.153 1016.58 146.756C1010.71 141.263 1007.77 134.682 1007.77 127.011C1007.77 119.246 1010.71 112.665 1016.58 107.267C1022.45 101.775 1029.46 99.0284 1037.6 99.0284C1045.84 99.0284 1052.85 101.775 1058.62 107.267C1064.49 112.665 1067.43 119.246 1067.43 127.011C1067.43 134.682 1064.49 141.263 1058.62 146.756C1052.85 152.153 1045.84 154.852 1037.6 154.852ZM1197.01 407.835C1179.87 407.835 1164.53 403.432 1150.99 394.625C1137.45 385.818 1126.75 373.034 1118.89 356.273C1111.03 339.511 1107.1 319.152 1107.1 295.193C1107.1 270.951 1111.07 250.496 1119.03 233.83C1127.08 217.068 1137.92 204.426 1151.56 195.903C1165.19 187.286 1180.39 182.977 1197.15 182.977C1209.94 182.977 1220.45 185.155 1228.69 189.511C1236.93 193.773 1243.46 198.934 1248.29 204.994C1253.12 210.96 1256.86 216.595 1259.51 221.898H1261.64V113.091H1313.2V404H1262.64V369.625H1259.51C1256.86 374.928 1253.02 380.562 1248.01 386.528C1242.99 392.4 1236.36 397.419 1228.12 401.585C1219.88 405.752 1209.51 407.835 1197.01 407.835ZM1211.36 365.648C1222.25 365.648 1231.53 362.712 1239.2 356.841C1246.87 350.875 1252.69 342.589 1256.67 331.983C1260.65 321.377 1262.64 309.019 1262.64 294.909C1262.64 280.799 1260.65 268.536 1256.67 258.119C1252.79 247.703 1247.01 239.606 1239.34 233.83C1231.77 228.053 1222.44 225.165 1211.36 225.165C1199.9 225.165 1190.34 228.148 1182.66 234.114C1174.99 240.08 1169.22 248.318 1165.34 258.83C1161.45 269.341 1159.51 281.367 1159.51 294.909C1159.51 308.545 1161.45 320.714 1165.34 331.415C1169.31 342.021 1175.14 350.402 1182.81 356.557C1190.57 362.617 1200.09 365.648 1211.36 365.648Z" fill="white"/>
</g>
<g filter="url(#filter1_d_19_2)">
<path d="M280.824 153.384C278.868 160.02 272.117 163.749 265.746 161.712C259.374 159.675 255.794 152.644 257.75 146.007C259.705 139.371 266.456 135.642 272.828 137.679C279.199 139.716 282.779 146.747 280.824 153.384Z" fill="white"/>
</g>
<g filter="url(#filter2_i_19_2)">
<rect x="1" y="69" width="423" height="397" rx="50" fill="#0167DF"/>
</g>
<g filter="url(#filter3_d_19_2)">
<rect width="5.90416" height="139.225" transform="matrix(0.72242 0.691455 -0.661592 0.749864 233.977 297.767)" fill="white"/>
</g>
<g filter="url(#filter4_d_19_2)">
<rect width="5.89906" height="87.8639" transform="matrix(0.737017 -0.675874 0.645571 0.7637 177.854 238.92)" fill="white"/>
</g>
<g filter="url(#filter5_d_19_2)">
<rect width="5.92376" height="138.764" transform="matrix(0.663769 0.747937 -0.720393 0.693567 268.919 146.889)" fill="white"/>
</g>
<g filter="url(#filter6_d_19_2)">
<rect width="5.25295" height="114.717" transform="matrix(0.766686 0.642022 -0.697808 0.716285 331.191 167.246)" fill="white"/>
</g>
<g filter="url(#filter7_d_19_2)">
<rect width="5.25295" height="114.717" transform="matrix(0.766686 0.642022 -0.697808 0.716285 198.312 132.791)" fill="white"/>
</g>
<g filter="url(#filter8_d_19_2)">
<rect width="4.85277" height="78.3365" transform="matrix(0.842145 -0.539251 0.605667 0.795718 117.897 216.195)" fill="white"/>
</g>
<g filter="url(#filter9_d_19_2)">
<rect width="5.28818" height="77.569" transform="matrix(0.789469 0.61379 -0.661242 0.750173 169.541 276.115)" fill="white"/>
</g>
<g filter="url(#filter10_d_19_2)">
<ellipse cx="12.1499" cy="12.4945" rx="12.1499" ry="12.4945" transform="matrix(0.910293 0.413965 -0.377209 0.926128 110.866 322.574)" fill="white"/>
</g>
<g filter="url(#filter11_d_19_2)">
<rect width="4.85277" height="78.3365" transform="matrix(0.842145 -0.539251 0.605667 0.795718 254.037 251.315)" fill="white"/>
</g>
<g filter="url(#filter12_d_19_2)">
<rect width="5.28818" height="77.569" transform="matrix(0.789469 0.61379 -0.661242 0.750173 297.605 308.027)" fill="white"/>
</g>
<g filter="url(#filter13_d_19_2)">
<ellipse cx="12.1499" cy="12.4945" rx="12.1499" ry="12.4945" transform="matrix(0.910293 0.413965 -0.377209 0.926128 291.461 293.949)" fill="white"/>
</g>
<g filter="url(#filter14_d_19_2)">
<ellipse cx="12.1499" cy="12.4945" rx="12.1499" ry="12.4945" transform="matrix(0.910293 0.413965 -0.377209 0.926128 247.05 234.62)" fill="white"/>
</g>
<g filter="url(#filter15_d_19_2)">
<path d="M209.208 137.366C207.252 144.002 200.502 147.731 194.13 145.694C187.758 143.657 184.178 136.626 186.134 129.989C188.09 123.353 194.84 119.624 201.212 121.661C207.584 123.698 211.164 130.729 209.208 137.366Z" fill="white"/>
</g>
<g filter="url(#filter16_d_19_2)">
<ellipse cx="12.1122" cy="12.5273" rx="12.1122" ry="12.5273" transform="matrix(0.95251 0.304506 -0.282668 0.959218 170.137 220.557)" fill="white"/>
</g>
<g filter="url(#filter17_d_19_2)">
<ellipse cx="12.1499" cy="12.4945" rx="12.1499" ry="12.4945" transform="matrix(0.910293 0.413965 -0.377209 0.926128 113.626 203.543)" fill="white"/>
</g>
<g filter="url(#filter18_d_19_2)">
<ellipse cx="12.1499" cy="12.4945" rx="12.1499" ry="12.4945" transform="matrix(0.910293 0.413965 -0.377209 0.926128 160.87 265.98)" fill="white"/>
</g>
<g filter="url(#filter19_d_19_2)">
<ellipse cx="12.1122" cy="12.5273" rx="12.1122" ry="12.5273" transform="matrix(0.95251 0.304506 -0.282668 0.959218 225.048 284.394)" fill="white"/>
</g>
<g filter="url(#filter20_d_19_2)">
<path d="M280.824 153.384C278.868 160.02 272.117 163.749 265.746 161.712C259.374 159.675 255.794 152.644 257.75 146.007C259.705 139.371 266.456 135.642 272.828 137.679C279.199 139.716 282.779 146.747 280.824 153.384Z" fill="white"/>
</g>
<g filter="url(#filter21_d_19_2)">
<ellipse cx="12.1499" cy="12.4945" rx="12.1499" ry="12.4945" transform="matrix(0.910293 0.413965 -0.377209 0.926128 325.252 153.168)" fill="white"/>
</g>
<g filter="url(#filter22_d_19_2)">
<ellipse cx="12.1499" cy="12.4945" rx="12.1499" ry="12.4945" transform="matrix(0.910293 0.413965 -0.377209 0.926128 240.292 352.272)" fill="white"/>
</g>
<g filter="url(#filter23_d_19_2)">
<ellipse cx="12.1122" cy="12.5273" rx="12.1122" ry="12.5273" transform="matrix(0.95251 0.304506 -0.282668 0.959218 140.008 384.484)" fill="white"/>
</g>
<defs>
<filter id="filter0_i_19_2" x="551.912" y="99.0284" width="761.293" height="313.375" filterUnits="userSpaceOnUse" color-interpolation-filters="sRGB">
<feFlood flood-opacity="0" result="BackgroundImageFix"/>
<feBlend mode="normal" in="SourceGraphic" in2="BackgroundImageFix" result="shape"/>
<feColorMatrix in="SourceAlpha" type="matrix" values="0 0 0 0 0 0 0 0 0 0 0 0 0 0 0 0 0 0 127 0" result="hardAlpha"/>
<feOffset dy="4"/>
<feGaussianBlur stdDeviation="2"/>
<feComposite in2="hardAlpha" operator="arithmetic" k2="-1" k3="1"/>
<feColorMatrix type="matrix" values="0 0 0 0 0 0 0 0 0 0 0 0 0 0 0 0 0 0 0.25 0"/>
<feBlend mode="normal" in2="shape" result="effect1_innerShadow_19_2"/>
</filter>
<filter id="filter1_d_19_2" x="253.215" y="137.122" width="32.1426" height="33.1461" filterUnits="userSpaceOnUse" color-interpolation-filters="sRGB">
<feFlood flood-opacity="0" result="BackgroundImageFix"/>
<feColorMatrix in="SourceAlpha" type="matrix" values="0 0 0 0 0 0 0 0 0 0 0 0 0 0 0 0 0 0 127 0" result="hardAlpha"/>
<feOffset dy="4"/>
<feGaussianBlur stdDeviation="2"/>
<feComposite in2="hardAlpha" operator="out"/>
<feColorMatrix type="matrix" values="0 0 0 0 0 0 0 0 0 0 0 0 0 0 0 0 0 0 0.25 0"/>
<feBlend mode="normal" in2="BackgroundImageFix" result="effect1_dropShadow_19_2"/>
<feBlend mode="normal" in="SourceGraphic" in2="effect1_dropShadow_19_2" result="shape"/>
</filter>
<filter id="filter2_i_19_2" x="1" y="69" width="423" height="401" filterUnits="userSpaceOnUse" color-interpolation-filters="sRGB">
<feFlood flood-opacity="0" result="BackgroundImageFix"/>
<feBlend mode="normal" in="SourceGraphic" in2="BackgroundImageFix" result="shape"/>
<feColorMatrix in="SourceAlpha" type="matrix" values="0 0 0 0 0 0 0 0 0 0 0 0 0 0 0 0 0 0 127 0" result="hardAlpha"/>
<feOffset dy="4"/>
<feGaussianBlur stdDeviation="2"/>
<feComposite in2="hardAlpha" operator="arithmetic" k2="-1" k3="1"/>
<feColorMatrix type="matrix" values="0 0 0 0 0 0 0 0 0 0 0 0 0 0 0 0 0 0 0.25 0"/>
<feBlend mode="normal" in2="shape" result="effect1_innerShadow_19_2"/>
</filter>
<filter id="filter3_d_19_2" x="137.867" y="297.767" width="104.375" height="116.482" filterUnits="userSpaceOnUse" color-interpolation-filters="sRGB">
<feFlood flood-opacity="0" result="BackgroundImageFix"/>
<feColorMatrix in="SourceAlpha" type="matrix" values="0 0 0 0 0 0 0 0 0 0 0 0 0 0 0 0 0 0 127 0" result="hardAlpha"/>
<feOffset dy="4"/>
<feGaussianBlur stdDeviation="2"/>
<feComposite in2="hardAlpha" operator="out"/>
<feColorMatrix type="matrix" values="0 0 0 0 0 0 0 0 0 0 0 0 0 0 0 0 0 0 0.25 0"/>
<feBlend mode="normal" in2="BackgroundImageFix" result="effect1_dropShadow_19_2"/>
<feBlend mode="normal" in="SourceGraphic" in2="effect1_dropShadow_19_2" result="shape"/>
</filter>
<filter id="filter4_d_19_2" x="173.854" y="234.932" width="69.0701" height="79.0887" filterUnits="userSpaceOnUse" color-interpolation-filters="sRGB">
<feFlood flood-opacity="0" result="BackgroundImageFix"/>
<feColorMatrix in="SourceAlpha" type="matrix" values="0 0 0 0 0 0 0 0 0 0 0 0 0 0 0 0 0 0 127 0" result="hardAlpha"/>
<feOffset dy="4"/>
<feGaussianBlur stdDeviation="2"/>
<feComposite in2="hardAlpha" operator="out"/>
<feColorMatrix type="matrix" values="0 0 0 0 0 0 0 0 0 0 0 0 0 0 0 0 0 0 0.25 0"/>
<feBlend mode="normal" in2="BackgroundImageFix" result="effect1_dropShadow_19_2"/>
<feBlend mode="normal" in="SourceGraphic" in2="effect1_dropShadow_19_2" result="shape"/>
</filter>
<filter id="filter5_d_19_2" x="164.954" y="146.889" width="111.897" height="108.673" filterUnits="userSpaceOnUse" color-interpolation-filters="sRGB">
<feFlood flood-opacity="0" result="BackgroundImageFix"/>
<feColorMatrix in="SourceAlpha" type="matrix" values="0 0 0 0 0 0 0 0 0 0 0 0 0 0 0 0 0 0 127 0" result="hardAlpha"/>
<feOffset dy="4"/>
<feGaussianBlur stdDeviation="2"/>
<feComposite in2="hardAlpha" operator="out"/>
<feColorMatrix type="matrix" values="0 0 0 0 0 0 0 0 0 0 0 0 0 0 0 0 0 0 0.25 0"/>
<feBlend mode="normal" in2="BackgroundImageFix" result="effect1_dropShadow_19_2"/>
<feBlend mode="normal" in="SourceGraphic" in2="effect1_dropShadow_19_2" result="shape"/>
</filter>
<filter id="filter6_d_19_2" x="247.14" y="167.246" width="92.0781" height="93.5428" filterUnits="userSpaceOnUse" color-interpolation-filters="sRGB">
<feFlood flood-opacity="0" result="BackgroundImageFix"/>
<feColorMatrix in="SourceAlpha" type="matrix" values="0 0 0 0 0 0 0 0 0 0 0 0 0 0 0 0 0 0 127 0" result="hardAlpha"/>
<feOffset dy="4"/>
<feGaussianBlur stdDeviation="2"/>
<feComposite in2="hardAlpha" operator="out"/>
<feColorMatrix type="matrix" values="0 0 0 0 0 0 0 0 0 0 0 0 0 0 0 0 0 0 0.25 0"/>
<feBlend mode="normal" in2="BackgroundImageFix" result="effect1_dropShadow_19_2"/>
<feBlend mode="normal" in="SourceGraphic" in2="effect1_dropShadow_19_2" result="shape"/>
</filter>
<filter id="filter7_d_19_2" x="114.261" y="132.791" width="92.0781" height="93.5428" filterUnits="userSpaceOnUse" color-interpolation-filters="sRGB">
<feFlood flood-opacity="0" result="BackgroundImageFix"/>
<feColorMatrix in="SourceAlpha" type="matrix" values="0 0 0 0 0 0 0 0 0 0 0 0 0 0 0 0 0 0 127 0" result="hardAlpha"/>
<feOffset dy="4"/>
<feGaussianBlur stdDeviation="2"/>
<feComposite in2="hardAlpha" operator="out"/>
<feColorMatrix type="matrix" values="0 0 0 0 0 0 0 0 0 0 0 0 0 0 0 0 0 0 0.25 0"/>
<feBlend mode="normal" in2="BackgroundImageFix" result="effect1_dropShadow_19_2"/>
<feBlend mode="normal" in="SourceGraphic" in2="effect1_dropShadow_19_2" result="shape"/>
</filter>
<filter id="filter8_d_19_2" x="113.897" y="213.578" width="59.5325" height="72.9507" filterUnits="userSpaceOnUse" color-interpolation-filters="sRGB">
<feFlood flood-opacity="0" result="BackgroundImageFix"/>
<feColorMatrix in="SourceAlpha" type="matrix" values="0 0 0 0 0 0 0 0 0 0 0 0 0 0 0 0 0 0 127 0" result="hardAlpha"/>
<feOffset dy="4"/>
<feGaussianBlur stdDeviation="2"/>
<feComposite in2="hardAlpha" operator="out"/>
<feColorMatrix type="matrix" values="0 0 0 0 0 0 0 0 0 0 0 0 0 0 0 0 0 0 0.25 0"/>
<feBlend mode="normal" in2="BackgroundImageFix" result="effect1_dropShadow_19_2"/>
<feBlend mode="normal" in="SourceGraphic" in2="effect1_dropShadow_19_2" result="shape"/>
</filter>
<filter id="filter9_d_19_2" x="114.249" y="276.115" width="63.4666" height="69.436" filterUnits="userSpaceOnUse" color-interpolation-filters="sRGB">
<feFlood flood-opacity="0" result="BackgroundImageFix"/>
<feColorMatrix in="SourceAlpha" type="matrix" values="0 0 0 0 0 0 0 0 0 0 0 0 0 0 0 0 0 0 127 0" result="hardAlpha"/>
<feOffset dy="4"/>
<feGaussianBlur stdDeviation="2"/>
<feComposite in2="hardAlpha" operator="out"/>
<feColorMatrix type="matrix" values="0 0 0 0 0 0 0 0 0 0 0 0 0 0 0 0 0 0 0.25 0"/>
<feBlend mode="normal" in2="BackgroundImageFix" result="effect1_dropShadow_19_2"/>
<feBlend mode="normal" in="SourceGraphic" in2="effect1_dropShadow_19_2" result="shape"/>
</filter>
<filter id="filter10_d_19_2" x="101.187" y="326.555" width="32.0508" height="33.2411" filterUnits="userSpaceOnUse" color-interpolation-filters="sRGB">
<feFlood flood-opacity="0" result="BackgroundImageFix"/>
<feColorMatrix in="SourceAlpha" type="matrix" values="0 0 0 0 0 0 0 0 0 0 0 0 0 0 0 0 0 0 127 0" result="hardAlpha"/>
<feOffset dy="4"/>
<feGaussianBlur stdDeviation="2"/>
<feComposite in2="hardAlpha" operator="out"/>
<feColorMatrix type="matrix" values="0 0 0 0 0 0 0 0 0 0 0 0 0 0 0 0 0 0 0.25 0"/>
<feBlend mode="normal" in2="BackgroundImageFix" result="effect1_dropShadow_19_2"/>
<feBlend mode="normal" in="SourceGraphic" in2="effect1_dropShadow_19_2" result="shape"/>
</filter>
<filter id="filter11_d_19_2" x="250.037" y="248.698" width="59.5327" height="72.9507" filterUnits="userSpaceOnUse" color-interpolation-filters="sRGB">
<feFlood flood-opacity="0" result="BackgroundImageFix"/>
<feColorMatrix in="SourceAlpha" type="matrix" values="0 0 0 0 0 0 0 0 0 0 0 0 0 0 0 0 0 0 127 0" result="hardAlpha"/>
<feOffset dy="4"/>
<feGaussianBlur stdDeviation="2"/>
<feComposite in2="hardAlpha" operator="out"/>
<feColorMatrix type="matrix" values="0 0 0 0 0 0 0 0 0 0 0 0 0 0 0 0 0 0 0.25 0"/>
<feBlend mode="normal" in2="BackgroundImageFix" result="effect1_dropShadow_19_2"/>
<feBlend mode="normal" in="SourceGraphic" in2="effect1_dropShadow_19_2" result="shape"/>
</filter>
<filter id="filter12_d_19_2" x="242.313" y="308.027" width="63.4666" height="69.436" filterUnits="userSpaceOnUse" color-interpolation-filters="sRGB">
<feFlood flood-opacity="0" result="BackgroundImageFix"/>
<feColorMatrix in="SourceAlpha" type="matrix" values="0 0 0 0 0 0 0 0 0 0 0 0 0 0 0 0 0 0 127 0" result="hardAlpha"/>
<feOffset dy="4"/>
<feGaussianBlur stdDeviation="2"/>
<feComposite in2="hardAlpha" operator="out"/>
<feColorMatrix type="matrix" values="0 0 0 0 0 0 0 0 0 0 0 0 0 0 0 0 0 0 0.25 0"/>
<feBlend mode="normal" in2="BackgroundImageFix" result="effect1_dropShadow_19_2"/>
<feBlend mode="normal" in="SourceGraphic" in2="effect1_dropShadow_19_2" result="shape"/>
</filter>
<filter id="filter13_d_19_2" x="281.782" y="297.929" width="32.0508" height="33.2411" filterUnits="userSpaceOnUse" color-interpolation-filters="sRGB">
<feFlood flood-opacity="0" result="BackgroundImageFix"/>
<feColorMatrix in="SourceAlpha" type="matrix" values="0 0 0 0 0 0 0 0 0 0 0 0 0 0 0 0 0 0 127 0" result="hardAlpha"/>
<feOffset dy="4"/>
<feGaussianBlur stdDeviation="2"/>
<feComposite in2="hardAlpha" operator="out"/>
<feColorMatrix type="matrix" values="0 0 0 0 0 0 0 0 0 0 0 0 0 0 0 0 0 0 0.25 0"/>
<feBlend mode="normal" in2="BackgroundImageFix" result="effect1_dropShadow_19_2"/>
<feBlend mode="normal" in="SourceGraphic" in2="effect1_dropShadow_19_2" result="shape"/>
</filter>
<filter id="filter14_d_19_2" x="237.372" y="238.6" width="32.0508" height="33.2411" filterUnits="userSpaceOnUse" color-interpolation-filters="sRGB">
<feFlood flood-opacity="0" result="BackgroundImageFix"/>
<feColorMatrix in="SourceAlpha" type="matrix" values="0 0 0 0 0 0 0 0 0 0 0 0 0 0 0 0 0 0 127 0" result="hardAlpha"/>
<feOffset dy="4"/>
<feGaussianBlur stdDeviation="2"/>
<feComposite in2="hardAlpha" operator="out"/>
<feColorMatrix type="matrix" values="0 0 0 0 0 0 0 0 0 0 0 0 0 0 0 0 0 0 0.25 0"/>
<feBlend mode="normal" in2="BackgroundImageFix" result="effect1_dropShadow_19_2"/>
<feBlend mode="normal" in="SourceGraphic" in2="effect1_dropShadow_19_2" result="shape"/>
</filter>
<filter id="filter15_d_19_2" x="181.6" y="121.104" width="32.1428" height="33.1461" filterUnits="userSpaceOnUse" color-interpolation-filters="sRGB">
<feFlood flood-opacity="0" result="BackgroundImageFix"/>
<feColorMatrix in="SourceAlpha" type="matrix" values="0 0 0 0 0 0 0 0 0 0 0 0 0 0 0 0 0 0 127 0" result="hardAlpha"/>
<feOffset dy="4"/>
<feGaussianBlur stdDeviation="2"/>
<feComposite in2="hardAlpha" operator="out"/>
<feColorMatrix type="matrix" values="0 0 0 0 0 0 0 0 0 0 0 0 0 0 0 0 0 0 0.25 0"/>
<feBlend mode="normal" in2="BackgroundImageFix" result="effect1_dropShadow_19_2"/>
<feBlend mode="normal" in="SourceGraphic" in2="effect1_dropShadow_19_2" result="shape"/>
</filter>
<filter id="filter16_d_19_2" x="162.062" y="223.688" width="32.1428" height="33.1461" filterUnits="userSpaceOnUse" color-interpolation-filters="sRGB">
<feFlood flood-opacity="0" result="BackgroundImageFix"/>
<feColorMatrix in="SourceAlpha" type="matrix" values="0 0 0 0 0 0 0 0 0 0 0 0 0 0 0 0 0 0 127 0" result="hardAlpha"/>
<feOffset dy="4"/>
<feGaussianBlur stdDeviation="2"/>
<feComposite in2="hardAlpha" operator="out"/>
<feColorMatrix type="matrix" values="0 0 0 0 0 0 0 0 0 0 0 0 0 0 0 0 0 0 0.25 0"/>
<feBlend mode="normal" in2="BackgroundImageFix" result="effect1_dropShadow_19_2"/>
<feBlend mode="normal" in="SourceGraphic" in2="effect1_dropShadow_19_2" result="shape"/>
</filter>
<filter id="filter17_d_19_2" x="103.947" y="207.523" width="32.0508" height="33.2411" filterUnits="userSpaceOnUse" color-interpolation-filters="sRGB">
<feFlood flood-opacity="0" result="BackgroundImageFix"/>
<feColorMatrix in="SourceAlpha" type="matrix" values="0 0 0 0 0 0 0 0 0 0 0 0 0 0 0 0 0 0 127 0" result="hardAlpha"/>
<feOffset dy="4"/>
<feGaussianBlur stdDeviation="2"/>
<feComposite in2="hardAlpha" operator="out"/>
<feColorMatrix type="matrix" values="0 0 0 0 0 0 0 0 0 0 0 0 0 0 0 0 0 0 0.25 0"/>
<feBlend mode="normal" in2="BackgroundImageFix" result="effect1_dropShadow_19_2"/>
<feBlend mode="normal" in="SourceGraphic" in2="effect1_dropShadow_19_2" result="shape"/>
</filter>
<filter id="filter18_d_19_2" x="151.192" y="269.961" width="32.0508" height="33.2411" filterUnits="userSpaceOnUse" color-interpolation-filters="sRGB">
<feFlood flood-opacity="0" result="BackgroundImageFix"/>
<feColorMatrix in="SourceAlpha" type="matrix" values="0 0 0 0 0 0 0 0 0 0 0 0 0 0 0 0 0 0 127 0" result="hardAlpha"/>
<feOffset dy="4"/>
<feGaussianBlur stdDeviation="2"/>
<feComposite in2="hardAlpha" operator="out"/>
<feColorMatrix type="matrix" values="0 0 0 0 0 0 0 0 0 0 0 0 0 0 0 0 0 0 0.25 0"/>
<feBlend mode="normal" in2="BackgroundImageFix" result="effect1_dropShadow_19_2"/>
<feBlend mode="normal" in="SourceGraphic" in2="effect1_dropShadow_19_2" result="shape"/>
</filter>
<filter id="filter19_d_19_2" x="216.973" y="287.525" width="32.1428" height="33.146" filterUnits="userSpaceOnUse" color-interpolation-filters="sRGB">
<feFlood flood-opacity="0" result="BackgroundImageFix"/>
<feColorMatrix in="SourceAlpha" type="matrix" values="0 0 0 0 0 0 0 0 0 0 0 0 0 0 0 0 0 0 127 0" result="hardAlpha"/>
<feOffset dy="4"/>
<feGaussianBlur stdDeviation="2"/>
<feComposite in2="hardAlpha" operator="out"/>
<feColorMatrix type="matrix" values="0 0 0 0 0 0 0 0 0 0 0 0 0 0 0 0 0 0 0.25 0"/>
<feBlend mode="normal" in2="BackgroundImageFix" result="effect1_dropShadow_19_2"/>
<feBlend mode="normal" in="SourceGraphic" in2="effect1_dropShadow_19_2" result="shape"/>
</filter>
<filter id="filter20_d_19_2" x="253.215" y="137.122" width="32.1426" height="33.1461" filterUnits="userSpaceOnUse" color-interpolation-filters="sRGB">
<feFlood flood-opacity="0" result="BackgroundImageFix"/>
<feColorMatrix in="SourceAlpha" type="matrix" values="0 0 0 0 0 0 0 0 0 0 0 0 0 0 0 0 0 0 127 0" result="hardAlpha"/>
<feOffset dy="4"/>
<feGaussianBlur stdDeviation="2"/>
<feComposite in2="hardAlpha" operator="out"/>
<feColorMatrix type="matrix" values="0 0 0 0 0 0 0 0 0 0 0 0 0 0 0 0 0 0 0.25 0"/>
<feBlend mode="normal" in2="BackgroundImageFix" result="effect1_dropShadow_19_2"/>
<feBlend mode="normal" in="SourceGraphic" in2="effect1_dropShadow_19_2" result="shape"/>
</filter>
<filter id="filter21_d_19_2" x="315.573" y="157.148" width="32.0508" height="33.2411" filterUnits="userSpaceOnUse" color-interpolation-filters="sRGB">
<feFlood flood-opacity="0" result="BackgroundImageFix"/>
<feColorMatrix in="SourceAlpha" type="matrix" values="0 0 0 0 0 0 0 0 0 0 0 0 0 0 0 0 0 0 127 0" result="hardAlpha"/>
<feOffset dy="4"/>
<feGaussianBlur stdDeviation="2"/>
<feComposite in2="hardAlpha" operator="out"/>
<feColorMatrix type="matrix" values="0 0 0 0 0 0 0 0 0 0 0 0 0 0 0 0 0 0 0.25 0"/>
<feBlend mode="normal" in2="BackgroundImageFix" result="effect1_dropShadow_19_2"/>
<feBlend mode="normal" in="SourceGraphic" in2="effect1_dropShadow_19_2" result="shape"/>
</filter>
<filter id="filter22_d_19_2" x="230.614" y="356.253" width="32.0508" height="33.2411" filterUnits="userSpaceOnUse" color-interpolation-filters="sRGB">
<feFlood flood-opacity="0" result="BackgroundImageFix"/>
<feColorMatrix in="SourceAlpha" type="matrix" values="0 0 0 0 0 0 0 0 0 0 0 0 0 0 0 0 0 0 127 0" result="hardAlpha"/>
<feOffset dy="4"/>
<feGaussianBlur stdDeviation="2"/>
<feComposite in2="hardAlpha" operator="out"/>
<feColorMatrix type="matrix" values="0 0 0 0 0 0 0 0 0 0 0 0 0 0 0 0 0 0 0.25 0"/>
<feBlend mode="normal" in2="BackgroundImageFix" result="effect1_dropShadow_19_2"/>
<feBlend mode="normal" in="SourceGraphic" in2="effect1_dropShadow_19_2" result="shape"/>
</filter>
<filter id="filter23_d_19_2" x="131.933" y="387.616" width="32.1428" height="33.1461" filterUnits="userSpaceOnUse" color-interpolation-filters="sRGB">
<feFlood flood-opacity="0" result="BackgroundImageFix"/>
<feColorMatrix in="SourceAlpha" type="matrix" values="0 0 0 0 0 0 0 0 0 0 0 0 0 0 0 0 0 0 127 0" result="hardAlpha"/>
<feOffset dy="4"/>
<feGaussianBlur stdDeviation="2"/>
<feComposite in2="hardAlpha" operator="out"/>
<feColorMatrix type="matrix" values="0 0 0 0 0 0 0 0 0 0 0 0 0 0 0 0 0 0 0.25 0"/>
<feBlend mode="normal" in2="BackgroundImageFix" result="effect1_dropShadow_19_2"/>
<feBlend mode="normal" in="SourceGraphic" in2="effect1_dropShadow_19_2" result="shape"/>
</filter>
</defs>
</svg>
